<svg version="1" xmlns="http://www.w3.org/2000/svg" width="414.667" height="414.667" viewBox="0 0 311.000000 311.000000"><path d="M44.7 110.8L0 155.5l44.8 44.8L89.5 245l32.5-32.5c17.9-17.9 32.9-32.5 33.3-32.5.5 0 15.5 14.6 33.3 32.5l32.5 32.4 44.4-44.4C290 176 310 155.7 310 155.4c0-.4-20-20.6-44.4-45.1L221.2 66l-32.8 32.9-32.9 33-33-33-33-32.9-44.8 44.8zm63.4 20.6c10.1 10.1 19.7 19.7 21.2 21.4l2.8 3-21.2 21.1c-20.7 20.7-21.2 21.1-23.2 19.4-1.1-1-10.7-10.5-21.3-21.2-16.5-16.5-19.2-19.6-18.2-20.9 1.6-2 41-41.2 41.3-41.2.2 0 8.5 8.3 18.6 18.4zm134.7 2.9l21.2 21.2-21.4 21.4-21.5 21.4-21-21c-11.6-11.6-21.1-21.4-21.1-21.8 0-.7 41.5-42.5 42.2-42.5.2 0 9.9 9.6 21.6 21.3z"/><path d="M143.5 78l-12 12 12 12 12 12 12-12 12-12-12-12-12-12-12 12zM143.7 208.6c-6.4 6.4-11.7 11.9-11.7 12.2 0 .4 5.2 5.9 11.7 12.4l11.6 11.6 12-12 12-11.9-11.9-12-12-12-11.7 11.7z"/></svg>